<mxfile host="app.diagrams.net" modified="2024-05-26T08:13:23.005Z" agent="Mozilla/5.0 (Windows NT 10.0; Win64; x64) AppleWebKit/537.36 (KHTML, like Gecko) Chrome/125.0.0.0 Safari/537.36 Edg/125.0.0.0" etag="tA0z4Xea_A1RgEHLJXEc" version="24.4.8" type="github">
  <diagram name="第 1 页" id="H1pUonlaegiSx3B9aTZU">
    <mxGraphModel dx="1002" dy="577" grid="1" gridSize="10" guides="1" tooltips="1" connect="1" arrows="1" fold="1" page="1" pageScale="1" pageWidth="827" pageHeight="1169" math="0" shadow="0">
      <root>
        <mxCell id="0" />
        <mxCell id="1" parent="0" />
        <mxCell id="SqSaPGTPYqLi3nBn7RwS-7" style="edgeStyle=orthogonalEdgeStyle;rounded=0;orthogonalLoop=1;jettySize=auto;html=1;exitX=0.5;exitY=1;exitDx=0;exitDy=0;entryX=0.5;entryY=0;entryDx=0;entryDy=0;" edge="1" parent="1" source="SqSaPGTPYqLi3nBn7RwS-1" target="SqSaPGTPYqLi3nBn7RwS-6">
          <mxGeometry relative="1" as="geometry" />
        </mxCell>
        <mxCell id="SqSaPGTPYqLi3nBn7RwS-1" value="&lt;font data-sider-select-id=&quot;299f301a-1f86-4a96-bd31-b87915eda373&quot; style=&quot;font-size: 14px;&quot;&gt;3x3,c,c&lt;/font&gt;" style="rounded=0;whiteSpace=wrap;html=1;fillColor=#1ba1e2;fontColor=#ffffff;strokeColor=#006EAF;" vertex="1" parent="1">
          <mxGeometry x="220" y="140" width="140" height="40" as="geometry" />
        </mxCell>
        <mxCell id="SqSaPGTPYqLi3nBn7RwS-15" value="" style="edgeStyle=orthogonalEdgeStyle;rounded=0;orthogonalLoop=1;jettySize=auto;html=1;" edge="1" parent="1" source="SqSaPGTPYqLi3nBn7RwS-2" target="SqSaPGTPYqLi3nBn7RwS-14">
          <mxGeometry relative="1" as="geometry" />
        </mxCell>
        <mxCell id="SqSaPGTPYqLi3nBn7RwS-2" value="&lt;font data-sider-select-id=&quot;90f3c11c-8653-4d8e-9b77-4404c4e26ad8&quot; style=&quot;font-size: 19px;&quot;&gt;c&lt;/font&gt;" style="text;html=1;align=center;verticalAlign=middle;resizable=0;points=[];autosize=1;strokeColor=none;fillColor=none;" vertex="1" parent="1">
          <mxGeometry x="115" y="83" width="30" height="40" as="geometry" />
        </mxCell>
        <mxCell id="SqSaPGTPYqLi3nBn7RwS-5" value="" style="endArrow=classic;html=1;rounded=0;exitX=1.087;exitY=0.575;exitDx=0;exitDy=0;exitPerimeter=0;entryX=0.5;entryY=0;entryDx=0;entryDy=0;" edge="1" parent="1" source="SqSaPGTPYqLi3nBn7RwS-2" target="SqSaPGTPYqLi3nBn7RwS-1">
          <mxGeometry width="50" height="50" relative="1" as="geometry">
            <mxPoint x="390" y="320" as="sourcePoint" />
            <mxPoint x="440" y="270" as="targetPoint" />
            <Array as="points">
              <mxPoint x="290" y="106" />
            </Array>
          </mxGeometry>
        </mxCell>
        <mxCell id="SqSaPGTPYqLi3nBn7RwS-17" value="" style="edgeStyle=orthogonalEdgeStyle;rounded=0;orthogonalLoop=1;jettySize=auto;html=1;" edge="1" parent="1" source="SqSaPGTPYqLi3nBn7RwS-6" target="SqSaPGTPYqLi3nBn7RwS-16">
          <mxGeometry relative="1" as="geometry" />
        </mxCell>
        <mxCell id="SqSaPGTPYqLi3nBn7RwS-6" value="&lt;span style=&quot;font-size: 14px;&quot;&gt;3x3,c,c&lt;/span&gt;" style="rounded=0;whiteSpace=wrap;html=1;fillColor=#1ba1e2;fontColor=#ffffff;strokeColor=#006EAF;" vertex="1" parent="1">
          <mxGeometry x="220" y="230" width="140" height="40" as="geometry" />
        </mxCell>
        <mxCell id="SqSaPGTPYqLi3nBn7RwS-12" style="edgeStyle=orthogonalEdgeStyle;rounded=0;orthogonalLoop=1;jettySize=auto;html=1;exitX=0.5;exitY=1;exitDx=0;exitDy=0;" edge="1" parent="1" source="SqSaPGTPYqLi3nBn7RwS-8" target="SqSaPGTPYqLi3nBn7RwS-11">
          <mxGeometry relative="1" as="geometry" />
        </mxCell>
        <mxCell id="SqSaPGTPYqLi3nBn7RwS-8" value="&lt;span style=&quot;font-size: 14px;&quot;&gt;3x3,c,c&lt;/span&gt;" style="rounded=0;whiteSpace=wrap;html=1;fillColor=#1ba1e2;fontColor=#ffffff;strokeColor=#006EAF;" vertex="1" parent="1">
          <mxGeometry x="425" y="300" width="150" height="40" as="geometry" />
        </mxCell>
        <mxCell id="SqSaPGTPYqLi3nBn7RwS-11" value="&lt;span style=&quot;font-size: 14px;&quot;&gt;3x3,c,c&lt;/span&gt;" style="rounded=0;whiteSpace=wrap;html=1;fillColor=#1ba1e2;fontColor=#ffffff;strokeColor=#006EAF;" vertex="1" parent="1">
          <mxGeometry x="420" y="400" width="160" height="50" as="geometry" />
        </mxCell>
        <mxCell id="SqSaPGTPYqLi3nBn7RwS-13" value="" style="endArrow=classic;html=1;rounded=0;exitX=1;exitY=0.5;exitDx=0;exitDy=0;entryX=0.5;entryY=0;entryDx=0;entryDy=0;" edge="1" parent="1" source="SqSaPGTPYqLi3nBn7RwS-6" target="SqSaPGTPYqLi3nBn7RwS-8">
          <mxGeometry width="50" height="50" relative="1" as="geometry">
            <mxPoint x="390" y="320" as="sourcePoint" />
            <mxPoint x="440" y="270" as="targetPoint" />
            <Array as="points">
              <mxPoint x="500" y="250" />
            </Array>
          </mxGeometry>
        </mxCell>
        <mxCell id="SqSaPGTPYqLi3nBn7RwS-14" value="" style="shape=waypoint;sketch=0;size=6;pointerEvents=1;points=[];fillColor=none;resizable=0;rotatable=0;perimeter=centerPerimeter;snapToPoint=1;" vertex="1" parent="1">
          <mxGeometry x="120" y="510" width="20" height="20" as="geometry" />
        </mxCell>
        <mxCell id="SqSaPGTPYqLi3nBn7RwS-16" value="" style="shape=waypoint;sketch=0;size=6;pointerEvents=1;points=[];fillColor=default;resizable=0;rotatable=0;perimeter=centerPerimeter;snapToPoint=1;rounded=0;" vertex="1" parent="1">
          <mxGeometry x="280" y="510" width="20" height="20" as="geometry" />
        </mxCell>
        <mxCell id="SqSaPGTPYqLi3nBn7RwS-19" value="&lt;span style=&quot;font-size: 14px;&quot;&gt;1x1,4c,c&lt;/span&gt;" style="rounded=0;whiteSpace=wrap;html=1;fillColor=#1ba1e2;fontColor=#ffffff;strokeColor=#006EAF;" vertex="1" parent="1">
          <mxGeometry x="110" y="520" width="450" height="40" as="geometry" />
        </mxCell>
        <mxCell id="SqSaPGTPYqLi3nBn7RwS-21" value="" style="endArrow=classic;html=1;rounded=0;exitX=0.5;exitY=1;exitDx=0;exitDy=0;entryX=0.871;entryY=0.033;entryDx=0;entryDy=0;entryPerimeter=0;" edge="1" parent="1" source="SqSaPGTPYqLi3nBn7RwS-11" target="SqSaPGTPYqLi3nBn7RwS-19">
          <mxGeometry width="50" height="50" relative="1" as="geometry">
            <mxPoint x="390" y="320" as="sourcePoint" />
            <mxPoint x="440" y="270" as="targetPoint" />
          </mxGeometry>
        </mxCell>
      </root>
    </mxGraphModel>
  </diagram>
</mxfile>
